<svg width="282" height="84" viewBox="0 0 282 84" fill="none" xmlns="http://www.w3.org/2000/svg">
<g clip-path="url(#clip0_308_1809)">
<g clip-path="url(#clip1_308_1809)">
<path d="M222.838 14.215C223.384 14.9496 224.482 14.9575 225.039 14.231L234.012 2.52585C234.273 2.18544 234.677 1.98584 235.106 1.98584H253.055C254.189 1.98584 254.838 3.27814 254.162 4.18788L235.383 29.4313C235.019 29.9199 235.019 30.5889 235.383 31.0775L254.162 56.3219C254.838 57.2316 254.189 58.5239 253.055 58.5239H235.106C234.677 58.5239 234.273 58.3243 234.012 57.9839L225.039 46.278C224.482 45.5513 223.384 45.5593 222.838 46.2939L214.155 57.9679C213.895 58.3178 213.484 58.5239 213.048 58.5239H196.504C195.742 58.5239 195.125 57.9065 195.125 57.145V53.724C195.125 53.4207 195.225 53.1259 195.41 52.8852L212.113 31.0933C212.492 30.5984 212.492 29.9104 212.113 29.4155L195.41 7.62462C195.225 7.38389 195.125 7.08903 195.125 6.78571V3.36481C195.125 2.60323 195.742 1.98584 196.504 1.98584H213.048C213.484 1.98584 213.895 2.19199 214.155 2.54179L222.838 14.215Z" fill="white"/>
<rect y="1.98584" width="16.5477" height="56.5379" rx="1.37897" fill="white"/>
<path d="M38.607 1.98584C39.0429 1.98584 39.4532 2.19194 39.7134 2.54167L58.1885 27.373C58.9812 28.4384 60.6738 27.8778 60.6738 26.5499V3.36481C60.6738 2.60323 61.2912 1.98584 62.0528 1.98584H75.8427C76.6043 1.98584 77.2217 2.60323 77.2217 3.36481V57.1449C77.2217 57.9065 76.6043 58.5239 75.8427 58.5239H61.3699C60.9321 58.5239 60.5204 58.3161 60.2604 57.9639L41.7882 32.9407C40.998 31.8703 39.2998 32.4292 39.2998 33.7597V57.145C39.2998 57.9065 38.6824 58.5239 37.9208 58.5239H24.1309C23.3693 58.5239 22.752 57.9065 22.752 57.145V3.36482C22.752 2.60323 23.3693 1.98584 24.1309 1.98584H38.607Z" fill="white"/>
<path d="M116.868 1.98584C124.674 1.98595 131.003 8.31442 131.003 16.1206C131.003 23.9265 124.674 30.2543 116.868 30.2544C124.674 30.2545 131.003 36.583 131.003 44.3892C131.003 52.1952 124.674 58.5238 116.868 58.5239H83.4278C82.6662 58.5239 82.0488 57.9065 82.0488 57.145V3.36482C82.0488 2.60323 82.6662 1.98584 83.4278 1.98584H116.868ZM86.4609 36.0492C86.4609 36.8823 87.1939 37.5251 88.0198 37.4164L111.91 34.2725C113.364 34.0812 113.554 32.0536 112.161 31.5954L111.737 31.4559C110.472 31.0401 110.472 29.2519 111.737 28.8361L112.161 28.6966C113.554 28.2384 113.364 26.2108 111.91 26.0195L88.0198 22.8756C87.1939 22.7669 86.4609 23.4097 86.4609 24.2427V36.0492Z" fill="white"/>
<path d="M163.407 13.4779C163.407 14.1476 162.924 14.7142 162.274 14.878C155.397 16.6129 150.307 22.8397 150.307 30.2552C150.307 37.6705 155.398 43.8967 162.274 45.6315C162.924 45.7953 163.407 46.3618 163.407 47.0315V58.3425C163.407 59.141 162.73 59.7751 161.936 59.6873C145.871 57.9108 133.416 45.2571 133.416 29.9095C133.416 14.562 145.871 1.90815 161.936 0.131667C162.73 0.0439058 163.407 0.677994 163.407 1.4765V13.4779ZM168.923 1.56049C168.923 0.751255 169.617 0.11356 170.42 0.219033C186.139 2.2855 198.227 14.7898 198.228 29.9095C198.228 45.0292 186.139 57.5335 170.42 59.6C169.617 59.7054 168.923 59.0678 168.923 58.2585V47.0316C168.923 46.3619 169.406 45.7953 170.056 45.6315C176.933 43.897 182.023 37.6708 182.023 30.2552C182.023 22.8393 176.933 16.6125 170.056 14.8779C169.406 14.7141 168.923 14.1476 168.923 13.4778V1.56049Z" fill="white"/>
<circle cx="269.933" cy="47.1471" r="12.066" fill="white"/>
</g>
<path d="M0.517045 72.9812V71.5455H8.06037V72.9812H5.13814V81H3.43928V72.9812H0.517045ZM12.2819 76.8452V81H10.6107V71.5455H12.2449V75.114H12.328C12.4942 74.7139 12.7512 74.3984 13.099 74.1676C13.4498 73.9337 13.8961 73.8168 14.4378 73.8168C14.9302 73.8168 15.3595 73.9199 15.7258 74.1261C16.092 74.3323 16.3751 74.6339 16.5752 75.0309C16.7783 75.4279 16.8799 75.9126 16.8799 76.4851V81H15.2087V76.7436C15.2087 76.2666 15.0856 75.8957 14.8394 75.631C14.5963 75.3633 14.2546 75.2294 13.8145 75.2294C13.5191 75.2294 13.2544 75.294 13.0205 75.4233C12.7897 75.5495 12.6081 75.7326 12.4758 75.9727C12.3465 76.2127 12.2819 76.5036 12.2819 76.8452ZM22.8926 81.1385C22.1816 81.1385 21.5676 80.9908 21.0506 80.6953C20.5366 80.3968 20.1411 79.9751 19.8641 79.4304C19.5872 78.8826 19.4487 78.2378 19.4487 77.4961C19.4487 76.7667 19.5872 76.1265 19.8641 75.5756C20.1442 75.0217 20.5351 74.5908 21.0367 74.283C21.5384 73.9722 22.1278 73.8168 22.8048 73.8168C23.2419 73.8168 23.6543 73.8875 24.0421 74.0291C24.4329 74.1676 24.7776 74.383 25.0762 74.6754C25.3778 74.9678 25.6147 75.3402 25.7871 75.7926C25.9594 76.242 26.0456 76.7775 26.0456 77.3991V77.9116H20.2335V76.7852H24.4437C24.4406 76.4651 24.3714 76.1804 24.236 75.9311C24.1005 75.6787 23.9113 75.4802 23.6681 75.3356C23.4281 75.1909 23.148 75.1186 22.8279 75.1186C22.4863 75.1186 22.1862 75.2017 21.9277 75.3679C21.6692 75.531 21.4676 75.7464 21.323 76.0142C21.1814 76.2789 21.1091 76.5697 21.106 76.8867V77.87C21.106 78.2824 21.1814 78.6364 21.3322 78.9318C21.483 79.2242 21.6938 79.4489 21.9646 79.6058C22.2355 79.7597 22.5525 79.8366 22.9156 79.8366C23.1588 79.8366 23.3788 79.8028 23.5758 79.7351C23.7728 79.6643 23.9436 79.5612 24.0882 79.4258C24.2329 79.2904 24.3421 79.1226 24.416 78.9226L25.9764 79.098C25.8779 79.5104 25.6901 79.8705 25.4132 80.1783C25.1392 80.483 24.7884 80.7199 24.3606 80.8892C23.9328 81.0554 23.4435 81.1385 22.8926 81.1385ZM33.0979 81V71.5455H36.6433C37.3697 71.5455 37.979 71.6809 38.4715 71.9517C38.967 72.2225 39.3409 72.5949 39.5933 73.0689C39.8487 73.5398 39.9764 74.0753 39.9764 74.6754C39.9764 75.2817 39.8487 75.8203 39.5933 76.2912C39.3378 76.7621 38.9608 77.1329 38.4622 77.4038C37.9636 77.6715 37.3497 77.8054 36.6203 77.8054H34.2705V76.3974H36.3894C36.8141 76.3974 37.1619 76.3235 37.4328 76.1758C37.7036 76.0281 37.9036 75.8249 38.0329 75.5664C38.1652 75.3079 38.2314 75.0109 38.2314 74.6754C38.2314 74.34 38.1652 74.0445 38.0329 73.7891C37.9036 73.5336 37.702 73.3351 37.4281 73.1935C37.1573 73.0489 36.808 72.9766 36.3802 72.9766H34.8106V81H33.0979ZM42.5602 81V73.9091H44.1806V75.0909H44.2545C44.3837 74.6816 44.6053 74.3661 44.9192 74.1445C45.2362 73.9199 45.5979 73.8075 46.0041 73.8075C46.0964 73.8075 46.1995 73.8121 46.3134 73.8214C46.4304 73.8275 46.5273 73.8383 46.6043 73.8537V75.391C46.5335 75.3664 46.4211 75.3448 46.2673 75.3263C46.1165 75.3048 45.9703 75.294 45.8287 75.294C45.524 75.294 45.2501 75.3602 45.007 75.4925C44.7669 75.6218 44.5776 75.8018 44.4391 76.0327C44.3006 76.2635 44.2314 76.5297 44.2314 76.8313V81H42.5602ZM48.8845 81V73.9091H50.5557V81H48.8845ZM49.7247 72.9027C49.46 72.9027 49.2323 72.815 49.0415 72.6396C48.8507 72.4611 48.7553 72.2472 48.7553 71.9979C48.7553 71.7455 48.8507 71.5316 49.0415 71.3562C49.2323 71.1777 49.46 71.0884 49.7247 71.0884C49.9925 71.0884 50.2202 71.1777 50.408 71.3562C50.5988 71.5316 50.6942 71.7455 50.6942 71.9979C50.6942 72.2472 50.5988 72.4611 50.408 72.6396C50.2202 72.815 49.9925 72.9027 49.7247 72.9027ZM55.1153 76.8452V81H53.4442V73.9091H55.0415V75.114H55.1246C55.2877 74.717 55.5477 74.4015 55.9048 74.1676C56.2648 73.9337 56.7096 73.8168 57.2389 73.8168C57.7283 73.8168 58.1545 73.9214 58.5177 74.1307C58.8839 74.34 59.1671 74.6431 59.3671 75.0401C59.5702 75.4371 59.6703 75.9188 59.6672 76.4851V81H57.996V76.7436C57.996 76.2696 57.8729 75.8988 57.6267 75.631C57.3836 75.3633 57.0466 75.2294 56.6157 75.2294C56.3233 75.2294 56.0633 75.294 55.8355 75.4233C55.6108 75.5495 55.4339 75.7326 55.3046 75.9727C55.1784 76.2127 55.1153 76.5036 55.1153 76.8452ZM66.0769 73.9091V75.2017H62.0005V73.9091H66.0769ZM63.0069 72.2102H64.6781V78.8672C64.6781 79.0919 64.7119 79.2642 64.7797 79.3842C64.8504 79.5012 64.9428 79.5812 65.0566 79.6243C65.1705 79.6674 65.2967 79.6889 65.4352 79.6889C65.5398 79.6889 65.6352 79.6812 65.7214 79.6658C65.8107 79.6504 65.8784 79.6366 65.9245 79.6243L66.2061 80.9308C66.1169 80.9615 65.9892 80.9954 65.823 81.0323C65.6599 81.0692 65.4598 81.0908 65.2228 81.0969C64.8043 81.1093 64.4273 81.0462 64.0918 80.9077C63.7563 80.7661 63.4901 80.5476 63.2932 80.2521C63.0993 79.9567 63.0039 79.5874 63.0069 79.1442V72.2102ZM68.6445 81V73.9091H70.3157V81H68.6445ZM69.4847 72.9027C69.22 72.9027 68.9923 72.815 68.8015 72.6396C68.6107 72.4611 68.5153 72.2472 68.5153 71.9979C68.5153 71.7455 68.6107 71.5316 68.8015 71.3562C68.9923 71.1777 69.22 71.0884 69.4847 71.0884C69.7525 71.0884 69.9802 71.1777 70.168 71.3562C70.3588 71.5316 70.4542 71.7455 70.4542 71.9979C70.4542 72.2472 70.3588 72.4611 70.168 72.6396C69.9802 72.815 69.7525 72.9027 69.4847 72.9027ZM74.8753 76.8452V81H73.2042V73.9091H74.8015V75.114H74.8846C75.0477 74.717 75.3077 74.4015 75.6648 74.1676C76.0248 73.9337 76.4696 73.8168 76.9989 73.8168C77.4883 73.8168 77.9145 73.9214 78.2777 74.1307C78.6439 74.34 78.9271 74.6431 79.1271 75.0401C79.3302 75.4371 79.4303 75.9188 79.4272 76.4851V81H77.756V76.7436C77.756 76.2696 77.6329 75.8988 77.3867 75.631C77.1436 75.3633 76.8066 75.2294 76.3757 75.2294C76.0833 75.2294 75.8233 75.294 75.5955 75.4233C75.3708 75.5495 75.1939 75.7326 75.0646 75.9727C74.9384 76.2127 74.8753 76.5036 74.8753 76.8452ZM85.3799 83.8068C84.7797 83.8068 84.2642 83.7253 83.8333 83.5621C83.4025 83.4021 83.0562 83.1867 82.7946 82.9158C82.533 82.645 82.3514 82.3449 82.2499 82.0156L83.7549 81.6509C83.8226 81.7894 83.9211 81.9264 84.0503 82.0618C84.1796 82.2003 84.3535 82.3142 84.572 82.4034C84.7936 82.4957 85.0721 82.5419 85.4076 82.5419C85.8815 82.5419 86.2739 82.4265 86.5848 82.1957C86.8956 81.9679 87.051 81.5924 87.051 81.0692V79.7259H86.9679C86.8818 79.8982 86.7556 80.0752 86.5894 80.2567C86.4263 80.4383 86.2093 80.5907 85.9385 80.7138C85.6707 80.8369 85.3337 80.8984 84.9274 80.8984C84.3827 80.8984 83.8887 80.7707 83.4456 80.5153C83.0054 80.2567 82.6546 79.872 82.393 79.3612C82.1345 78.8472 82.0052 78.204 82.0052 77.4315C82.0052 76.6528 82.1345 75.9957 82.393 75.4602C82.6546 74.9216 83.007 74.5138 83.4502 74.2369C83.8934 73.9568 84.3873 73.8168 84.9321 73.8168C85.3475 73.8168 85.6892 73.8875 85.9569 74.0291C86.2278 74.1676 86.4432 74.3353 86.6032 74.5323C86.7633 74.7262 86.8848 74.9093 86.9679 75.0817H87.0603V73.9091H88.7083V81.1154C88.7083 81.7217 88.5637 82.2234 88.2744 82.6204C87.9851 83.0174 87.5896 83.3144 87.088 83.5114C86.5863 83.7083 86.0169 83.8068 85.3799 83.8068ZM85.3937 79.5874C85.7476 79.5874 86.0492 79.5012 86.2985 79.3288C86.5478 79.1565 86.7371 78.9087 86.8664 78.5856C86.9956 78.2624 87.0603 77.8746 87.0603 77.4222C87.0603 76.976 86.9956 76.5851 86.8664 76.2496C86.7402 75.9142 86.5524 75.6541 86.3032 75.4695C86.0569 75.2817 85.7538 75.1879 85.3937 75.1879C85.0213 75.1879 84.7105 75.2848 84.4612 75.4787C84.2119 75.6726 84.0242 75.9388 83.898 76.2773C83.7718 76.6128 83.7087 76.9944 83.7087 77.4222C83.7087 77.8562 83.7718 78.2363 83.898 78.5625C84.0272 78.8857 84.2165 79.138 84.4658 79.3196C84.7182 79.4981 85.0275 79.5874 85.3937 79.5874ZM98.8109 81.1385C98.1646 81.1385 97.6091 81.0215 97.1444 80.7876C96.6797 80.5537 96.3211 80.2383 96.0688 79.8413C95.8195 79.4412 95.6948 78.9903 95.6948 78.4886C95.6948 78.1101 95.7718 77.7746 95.9256 77.4822C96.0826 77.1899 96.298 76.919 96.5719 76.6697C96.8489 76.4205 97.169 76.1727 97.5322 75.9265L99.208 74.7862C99.4542 74.6262 99.6404 74.4569 99.7666 74.2784C99.8958 74.0999 99.9604 73.8906 99.9604 73.6506C99.9604 73.4474 99.8743 73.2551 99.7019 73.0735C99.5326 72.8919 99.2987 72.8011 99.0002 72.8011C98.8002 72.8011 98.6232 72.8488 98.4693 72.9442C98.3185 73.0366 98.2 73.1581 98.1139 73.3089C98.0308 73.4598 97.9892 73.6198 97.9892 73.7891C97.9892 73.9953 98.0461 74.2045 98.16 74.4169C98.277 74.6293 98.4278 74.8493 98.6124 75.0771C98.8002 75.3048 99.0002 75.5464 99.2126 75.8018L103.649 81H101.839L98.1554 76.7805C97.8815 76.4605 97.6168 76.145 97.3614 75.8342C97.109 75.5233 96.9013 75.2002 96.7381 74.8647C96.5781 74.5262 96.4981 74.1599 96.4981 73.766C96.4981 73.3197 96.6012 72.9212 96.8074 72.5703C97.0136 72.2164 97.3014 71.9379 97.6707 71.7347C98.0431 71.5316 98.4786 71.43 98.9771 71.43C99.4757 71.43 99.9035 71.5285 100.261 71.7255C100.618 71.9225 100.893 72.1841 101.087 72.5103C101.281 72.8365 101.378 73.192 101.378 73.5767C101.378 74.023 101.267 74.4231 101.045 74.777C100.824 75.1278 100.516 75.4464 100.122 75.7326L98.2108 77.1314C97.8969 77.3591 97.6722 77.59 97.5368 77.8239C97.4014 78.0547 97.3337 78.2517 97.3337 78.4148C97.3337 78.6641 97.3968 78.8903 97.5229 79.0934C97.6491 79.2965 97.8261 79.4596 98.0538 79.5827C98.2847 79.7028 98.554 79.7628 98.8617 79.7628C99.2003 79.7628 99.5342 79.6874 99.8635 79.5366C100.193 79.3827 100.493 79.1642 100.764 78.881C101.035 78.5979 101.25 78.2594 101.41 77.8654C101.57 77.4684 101.65 77.0283 101.65 76.5451H103.086C103.086 77.1422 103.02 77.6623 102.887 78.1055C102.755 78.5456 102.584 78.918 102.375 79.2227C102.166 79.5243 101.944 79.7659 101.71 79.9474C101.636 79.9998 101.565 80.0521 101.498 80.1044C101.43 80.1567 101.359 80.209 101.285 80.2614C100.953 80.563 100.564 80.7846 100.117 80.9261C99.6742 81.0677 99.2387 81.1385 98.8109 81.1385ZM110.244 81V71.5455H113.79C114.516 71.5455 115.125 71.6809 115.618 71.9517C116.113 72.2225 116.487 72.5949 116.74 73.0689C116.995 73.5398 117.123 74.0753 117.123 74.6754C117.123 75.2817 116.995 75.8203 116.74 76.2912C116.484 76.7621 116.107 77.1329 115.609 77.4038C115.11 77.6715 114.496 77.8054 113.767 77.8054H111.417V76.3974H113.536C113.961 76.3974 114.308 76.3235 114.579 76.1758C114.85 76.0281 115.05 75.8249 115.179 75.5664C115.312 75.3079 115.378 75.0109 115.378 74.6754C115.378 74.34 115.312 74.0445 115.179 73.7891C115.05 73.5336 114.848 73.3351 114.575 73.1935C114.304 73.0489 113.954 72.9766 113.527 72.9766H111.957V81H110.244ZM121.62 81.1431C121.171 81.1431 120.766 81.0631 120.406 80.9031C120.049 80.7399 119.766 80.4999 119.557 80.1829C119.35 79.8659 119.247 79.475 119.247 79.0103C119.247 78.6102 119.321 78.2794 119.469 78.0178C119.617 77.7562 119.818 77.5469 120.074 77.3899C120.329 77.233 120.617 77.1145 120.937 77.0344C121.26 76.9513 121.594 76.8913 121.939 76.8544C122.354 76.8113 122.691 76.7728 122.95 76.739C123.208 76.7021 123.396 76.6467 123.513 76.5728C123.633 76.4959 123.693 76.3774 123.693 76.2173V76.1896C123.693 75.8419 123.59 75.5726 123.384 75.3817C123.177 75.1909 122.88 75.0955 122.493 75.0955C122.083 75.0955 121.759 75.1848 121.519 75.3633C121.282 75.5418 121.122 75.7526 121.038 75.9957L119.478 75.7741C119.601 75.3433 119.804 74.9832 120.087 74.6939C120.371 74.4015 120.717 74.183 121.126 74.0384C121.535 73.8906 121.988 73.8168 122.483 73.8168C122.825 73.8168 123.165 73.8568 123.504 73.9368C123.842 74.0168 124.151 74.1491 124.432 74.3338C124.712 74.5154 124.936 74.7631 125.106 75.0771C125.278 75.391 125.364 75.7834 125.364 76.2543V81H123.758V80.0259H123.702C123.601 80.2229 123.457 80.4076 123.273 80.5799C123.091 80.7492 122.862 80.8861 122.585 80.9908C122.311 81.0923 121.989 81.1431 121.62 81.1431ZM122.054 79.9151C122.39 79.9151 122.68 79.849 122.927 79.7166C123.173 79.5812 123.362 79.4027 123.494 79.1811C123.63 78.9595 123.698 78.7179 123.698 78.4563V77.6207C123.645 77.6638 123.556 77.7038 123.43 77.7408C123.307 77.7777 123.168 77.81 123.014 77.8377C122.86 77.8654 122.708 77.89 122.557 77.9116C122.406 77.9331 122.276 77.9516 122.165 77.967C121.916 78.0008 121.692 78.0562 121.495 78.1332C121.299 78.2101 121.143 78.3178 121.029 78.4563C120.915 78.5917 120.858 78.7672 120.858 78.9826C120.858 79.2904 120.971 79.5227 121.195 79.6797C121.42 79.8366 121.706 79.9151 122.054 79.9151ZM131.308 81.1385C130.6 81.1385 129.992 80.9831 129.484 80.6722C128.979 80.3614 128.59 79.9321 128.316 79.3842C128.045 78.8333 127.91 78.1993 127.91 77.4822C127.91 76.7621 128.048 76.1265 128.325 75.5756C128.602 75.0217 128.993 74.5908 129.498 74.283C130.006 73.9722 130.606 73.8168 131.298 73.8168C131.874 73.8168 132.383 73.9229 132.826 74.1353C133.273 74.3446 133.628 74.6416 133.893 75.0263C134.157 75.4079 134.308 75.8542 134.345 76.3651H132.748C132.683 76.0234 132.529 75.7388 132.286 75.511C132.046 75.2802 131.725 75.1648 131.321 75.1648C130.98 75.1648 130.68 75.2571 130.421 75.4418C130.163 75.6233 129.961 75.8849 129.816 76.2266C129.675 76.5682 129.604 76.9775 129.604 77.4545C129.604 77.9377 129.675 78.3532 129.816 78.701C129.958 79.0457 130.156 79.3119 130.412 79.4996C130.67 79.6843 130.974 79.7766 131.321 79.7766C131.568 79.7766 131.788 79.7305 131.982 79.6381C132.178 79.5427 132.343 79.4058 132.475 79.2273C132.608 79.0488 132.699 78.8318 132.748 78.5763H134.345C134.305 79.078 134.157 79.5227 133.902 79.9105C133.647 80.2952 133.299 80.5968 132.859 80.8153C132.419 81.0308 131.902 81.1385 131.308 81.1385ZM138.411 78.7749L138.406 76.7575H138.674L141.222 73.9091H143.175L140.04 77.3991H139.694L138.411 78.7749ZM136.887 81V71.5455H138.559V81H136.887ZM141.338 81L139.029 77.7731L140.156 76.5959L143.337 81H141.338ZM147.499 81.1431C147.05 81.1431 146.645 81.0631 146.285 80.9031C145.928 80.7399 145.645 80.4999 145.436 80.1829C145.229 79.8659 145.126 79.475 145.126 79.0103C145.126 78.6102 145.2 78.2794 145.348 78.0178C145.496 77.7562 145.697 77.5469 145.953 77.3899C146.208 77.233 146.496 77.1145 146.816 77.0344C147.139 76.9513 147.473 76.8913 147.818 76.8544C148.233 76.8113 148.57 76.7728 148.829 76.739C149.087 76.7021 149.275 76.6467 149.392 76.5728C149.512 76.4959 149.572 76.3774 149.572 76.2173V76.1896C149.572 75.8419 149.469 75.5726 149.263 75.3817C149.057 75.1909 148.76 75.0955 148.372 75.0955C147.962 75.0955 147.638 75.1848 147.398 75.3633C147.161 75.5418 147.001 75.7526 146.918 75.9957L145.357 75.7741C145.48 75.3433 145.683 74.9832 145.967 74.6939C146.25 74.4015 146.596 74.183 147.005 74.0384C147.415 73.8906 147.867 73.8168 148.363 73.8168C148.704 73.8168 149.044 73.8568 149.383 73.9368C149.721 74.0168 150.031 74.1491 150.311 74.3338C150.591 74.5154 150.815 74.7631 150.985 75.0771C151.157 75.391 151.243 75.7834 151.243 76.2543V81H149.637V80.0259H149.581C149.48 80.2229 149.337 80.4076 149.152 80.5799C148.97 80.7492 148.741 80.8861 148.464 80.9908C148.19 81.0923 147.869 81.1431 147.499 81.1431ZM147.933 79.9151C148.269 79.9151 148.56 79.849 148.806 79.7166C149.052 79.5812 149.241 79.4027 149.374 79.1811C149.509 78.9595 149.577 78.7179 149.577 78.4563V77.6207C149.524 77.6638 149.435 77.7038 149.309 77.7408C149.186 77.7777 149.047 77.81 148.893 77.8377C148.74 77.8654 148.587 77.89 148.436 77.9116C148.286 77.9331 148.155 77.9516 148.044 77.967C147.795 78.0008 147.572 78.0562 147.375 78.1332C147.178 78.2101 147.022 78.3178 146.908 78.4563C146.794 78.5917 146.738 78.7672 146.738 78.9826C146.738 79.2904 146.85 79.5227 147.075 79.6797C147.299 79.8366 147.585 79.9151 147.933 79.9151ZM157.177 83.8068C156.577 83.8068 156.062 83.7253 155.631 83.5621C155.2 83.4021 154.854 83.1867 154.592 82.9158C154.331 82.645 154.149 82.3449 154.047 82.0156L155.552 81.6509C155.62 81.7894 155.719 81.9264 155.848 82.0618C155.977 82.2003 156.151 82.3142 156.37 82.4034C156.591 82.4957 156.87 82.5419 157.205 82.5419C157.679 82.5419 158.071 82.4265 158.382 82.1957C158.693 81.9679 158.849 81.5924 158.849 81.0692V79.7259H158.765C158.679 79.8982 158.553 80.0752 158.387 80.2567C158.224 80.4383 158.007 80.5907 157.736 80.7138C157.468 80.8369 157.131 80.8984 156.725 80.8984C156.18 80.8984 155.686 80.7707 155.243 80.5153C154.803 80.2567 154.452 79.872 154.191 79.3612C153.932 78.8472 153.803 78.204 153.803 77.4315C153.803 76.6528 153.932 75.9957 154.191 75.4602C154.452 74.9216 154.805 74.5138 155.248 74.2369C155.691 73.9568 156.185 73.8168 156.73 73.8168C157.145 73.8168 157.487 73.8875 157.754 74.0291C158.025 74.1676 158.241 74.3353 158.401 74.5323C158.561 74.7262 158.682 74.9093 158.765 75.0817H158.858V73.9091H160.506V81.1154C160.506 81.7217 160.361 82.2234 160.072 82.6204C159.783 83.0174 159.387 83.3144 158.886 83.5114C158.384 83.7083 157.815 83.8068 157.177 83.8068ZM157.191 79.5874C157.545 79.5874 157.847 79.5012 158.096 79.3288C158.345 79.1565 158.535 78.9087 158.664 78.5856C158.793 78.2624 158.858 77.8746 158.858 77.4222C158.858 76.976 158.793 76.5851 158.664 76.2496C158.538 75.9142 158.35 75.6541 158.101 75.4695C157.855 75.2817 157.551 75.1879 157.191 75.1879C156.819 75.1879 156.508 75.2848 156.259 75.4787C156.009 75.6726 155.822 75.9388 155.696 76.2773C155.569 76.6128 155.506 76.9944 155.506 77.4222C155.506 77.8562 155.569 78.2363 155.696 78.5625C155.825 78.8857 156.014 79.138 156.263 79.3196C156.516 79.4981 156.825 79.5874 157.191 79.5874ZM163.389 81V73.9091H165.06V81H163.389ZM164.229 72.9027C163.964 72.9027 163.736 72.815 163.546 72.6396C163.355 72.4611 163.259 72.2472 163.259 71.9979C163.259 71.7455 163.355 71.5316 163.546 71.3562C163.736 71.1777 163.964 71.0884 164.229 71.0884C164.497 71.0884 164.724 71.1777 164.912 71.3562C165.103 71.5316 165.198 71.7455 165.198 71.9979C165.198 72.2472 165.103 72.4611 164.912 72.6396C164.724 72.815 164.497 72.9027 164.229 72.9027ZM169.619 76.8452V81H167.948V73.9091H169.546V75.114H169.629C169.792 74.717 170.052 74.4015 170.409 74.1676C170.769 73.9337 171.214 73.8168 171.743 73.8168C172.232 73.8168 172.659 73.9214 173.022 74.1307C173.388 74.34 173.671 74.6431 173.871 75.0401C174.074 75.4371 174.174 75.9188 174.171 76.4851V81H172.5V76.7436C172.5 76.2696 172.377 75.8988 172.131 75.631C171.888 75.3633 171.551 75.2294 171.12 75.2294C170.827 75.2294 170.567 75.294 170.34 75.4233C170.115 75.5495 169.938 75.7326 169.809 75.9727C169.683 76.2127 169.619 76.5036 169.619 76.8452ZM180.124 83.8068C179.524 83.8068 179.008 83.7253 178.577 83.5621C178.147 83.4021 177.8 83.1867 177.539 82.9158C177.277 82.645 177.096 82.3449 176.994 82.0156L178.499 81.6509C178.567 81.7894 178.665 81.9264 178.794 82.0618C178.924 82.2003 179.098 82.3142 179.316 82.4034C179.538 82.4957 179.816 82.5419 180.152 82.5419C180.626 82.5419 181.018 82.4265 181.329 82.1957C181.64 81.9679 181.795 81.5924 181.795 81.0692V79.7259H181.712C181.626 79.8982 181.5 80.0752 181.333 80.2567C181.17 80.4383 180.953 80.5907 180.683 80.7138C180.415 80.8369 180.078 80.8984 179.672 80.8984C179.127 80.8984 178.633 80.7707 178.19 80.5153C177.75 80.2567 177.399 79.872 177.137 79.3612C176.879 78.8472 176.749 78.204 176.749 77.4315C176.749 76.6528 176.879 75.9957 177.137 75.4602C177.399 74.9216 177.751 74.5138 178.194 74.2369C178.637 73.9568 179.131 73.8168 179.676 73.8168C180.092 73.8168 180.433 73.8875 180.701 74.0291C180.972 74.1676 181.187 74.3353 181.347 74.5323C181.507 74.7262 181.629 74.9093 181.712 75.0817H181.804V73.9091H183.452V81.1154C183.452 81.7217 183.308 82.2234 183.018 82.6204C182.729 83.0174 182.334 83.3144 181.832 83.5114C181.33 83.7083 180.761 83.8068 180.124 83.8068ZM180.138 79.5874C180.492 79.5874 180.793 79.5012 181.043 79.3288C181.292 79.1565 181.481 78.9087 181.61 78.5856C181.74 78.2624 181.804 77.8746 181.804 77.4222C181.804 76.976 181.74 76.5851 181.61 76.2496C181.484 75.9142 181.297 75.6541 181.047 75.4695C180.801 75.2817 180.498 75.1879 180.138 75.1879C179.765 75.1879 179.455 75.2848 179.205 75.4787C178.956 75.6726 178.768 75.9388 178.642 76.2773C178.516 76.6128 178.453 76.9944 178.453 77.4222C178.453 77.8562 178.516 78.2363 178.642 78.5625C178.771 78.8857 178.961 79.138 179.21 79.3196C179.462 79.4981 179.772 79.5874 180.138 79.5874ZM198.896 74.7354H197.17C197.121 74.4523 197.03 74.2015 196.897 73.983C196.765 73.7614 196.6 73.5736 196.403 73.4197C196.206 73.2659 195.982 73.1504 195.729 73.0735C195.48 72.9935 195.211 72.9535 194.922 72.9535C194.408 72.9535 193.952 73.0827 193.555 73.3413C193.158 73.5967 192.847 73.9722 192.623 74.4677C192.398 74.9601 192.286 75.5618 192.286 76.2727C192.286 76.996 192.398 77.6054 192.623 78.1009C192.85 78.5933 193.161 78.9657 193.555 79.218C193.952 79.4673 194.406 79.592 194.917 79.592C195.2 79.592 195.465 79.555 195.711 79.4812C195.96 79.4042 196.183 79.2919 196.38 79.1442C196.58 78.9964 196.748 78.8149 196.884 78.5994C197.022 78.384 197.117 78.1378 197.17 77.8608L198.896 77.87C198.832 78.3194 198.692 78.741 198.476 79.1349C198.264 79.5289 197.985 79.8767 197.641 80.1783C197.296 80.4768 196.893 80.7107 196.431 80.88C195.969 81.0462 195.457 81.1293 194.894 81.1293C194.063 81.1293 193.321 80.9369 192.669 80.5522C192.016 80.1675 191.502 79.612 191.127 78.8857C190.751 78.1593 190.564 77.2884 190.564 76.2727C190.564 75.254 190.753 74.383 191.131 73.6598C191.51 72.9335 192.025 72.378 192.678 71.9933C193.33 71.6085 194.069 71.4162 194.894 71.4162C195.42 71.4162 195.909 71.4901 196.362 71.6378C196.814 71.7855 197.217 72.0025 197.571 72.2887C197.925 72.5719 198.216 72.9196 198.444 73.332C198.675 73.7414 198.826 74.2092 198.896 74.7354ZM204.654 81.1385C203.961 81.1385 203.361 80.9862 202.854 80.6815C202.346 80.3768 201.952 79.9505 201.672 79.4027C201.395 78.8549 201.256 78.2147 201.256 77.4822C201.256 76.7498 201.395 76.1081 201.672 75.5572C201.952 75.0063 202.346 74.5785 202.854 74.2738C203.361 73.9691 203.961 73.8168 204.654 73.8168C205.346 73.8168 205.947 73.9691 206.454 74.2738C206.962 74.5785 207.355 75.0063 207.632 75.5572C207.912 76.1081 208.052 76.7498 208.052 77.4822C208.052 78.2147 207.912 78.8549 207.632 79.4027C207.355 79.9505 206.962 80.3768 206.454 80.6815C205.947 80.9862 205.346 81.1385 204.654 81.1385ZM204.663 79.7997C205.039 79.7997 205.353 79.6966 205.605 79.4904C205.857 79.2811 206.045 79.0011 206.168 78.6502C206.294 78.2994 206.357 77.9085 206.357 77.4776C206.357 77.0437 206.294 76.6513 206.168 76.3004C206.045 75.9465 205.857 75.6649 205.605 75.4556C205.353 75.2463 205.039 75.1417 204.663 75.1417C204.278 75.1417 203.958 75.2463 203.703 75.4556C203.451 75.6649 203.261 75.9465 203.135 76.3004C203.012 76.6513 202.95 77.0437 202.95 77.4776C202.95 77.9085 203.012 78.2994 203.135 78.6502C203.261 79.0011 203.451 79.2811 203.703 79.4904C203.958 79.6966 204.278 79.7997 204.663 79.7997ZM210.64 81V73.9091H212.237V75.114H212.32C212.468 74.7077 212.713 74.3907 213.054 74.163C213.396 73.9322 213.804 73.8168 214.278 73.8168C214.758 73.8168 215.163 73.9337 215.492 74.1676C215.824 74.3984 216.058 74.7139 216.194 75.114H216.268C216.425 74.7201 216.689 74.4061 217.062 74.1722C217.437 73.9353 217.882 73.8168 218.396 73.8168C219.048 73.8168 219.581 74.023 219.993 74.4354C220.405 74.8478 220.612 75.4495 220.612 76.2404V81H218.936V76.4989C218.936 76.0588 218.819 75.7372 218.585 75.5341C218.351 75.3279 218.065 75.2248 217.726 75.2248C217.323 75.2248 217.008 75.351 216.78 75.6033C216.555 75.8526 216.443 76.1773 216.443 76.5774V81H214.804V76.4297C214.804 76.0634 214.693 75.7711 214.472 75.5526C214.253 75.334 213.967 75.2248 213.613 75.2248C213.373 75.2248 213.155 75.2863 212.958 75.4094C212.761 75.5295 212.604 75.7003 212.487 75.9219C212.37 76.1404 212.311 76.3958 212.311 76.6882V81H210.64ZM223.477 83.6591V73.9091H225.121V75.0817H225.217C225.304 74.9093 225.425 74.7262 225.582 74.5323C225.739 74.3353 225.951 74.1676 226.219 74.0291C226.487 73.8875 226.829 73.8168 227.244 73.8168C227.792 73.8168 228.286 73.9568 228.726 74.2369C229.169 74.5138 229.52 74.9247 229.779 75.4695C230.04 76.0111 230.171 76.6759 230.171 77.4638C230.171 78.2424 230.043 78.9041 229.788 79.4489C229.532 79.9936 229.185 80.4091 228.744 80.6953C228.304 80.9815 227.806 81.1246 227.249 81.1246C226.842 81.1246 226.505 81.0569 226.238 80.9215C225.97 80.7861 225.755 80.623 225.591 80.4322C225.431 80.2383 225.307 80.0552 225.217 79.8828H225.148V83.6591H223.477ZM225.116 77.4545C225.116 77.9131 225.181 78.3147 225.31 78.6594C225.442 79.0041 225.631 79.2734 225.878 79.4673C226.127 79.6581 226.429 79.7536 226.782 79.7536C227.152 79.7536 227.461 79.6551 227.71 79.4581C227.96 79.258 228.147 78.9857 228.274 78.641C228.403 78.2932 228.467 77.8977 228.467 77.4545C228.467 77.0144 228.404 76.6236 228.278 76.282C228.152 75.9403 227.964 75.6726 227.715 75.4787C227.466 75.2848 227.155 75.1879 226.782 75.1879C226.425 75.1879 226.122 75.2817 225.873 75.4695C225.624 75.6572 225.434 75.9203 225.305 76.2589C225.179 76.5974 225.116 76.996 225.116 77.4545ZM234.813 81.1431C234.363 81.1431 233.958 81.0631 233.598 80.9031C233.241 80.7399 232.958 80.4999 232.749 80.1829C232.543 79.8659 232.44 79.475 232.44 79.0103C232.44 78.6102 232.514 78.2794 232.661 78.0178C232.809 77.7562 233.011 77.5469 233.266 77.3899C233.521 77.233 233.809 77.1145 234.129 77.0344C234.452 76.9513 234.786 76.8913 235.131 76.8544C235.547 76.8113 235.884 76.7728 236.142 76.739C236.401 76.7021 236.588 76.6467 236.705 76.5728C236.825 76.4959 236.885 76.3774 236.885 76.2173V76.1896C236.885 75.8419 236.782 75.5726 236.576 75.3817C236.37 75.1909 236.073 75.0955 235.685 75.0955C235.276 75.0955 234.951 75.1848 234.711 75.3633C234.474 75.5418 234.314 75.7526 234.231 75.9957L232.67 75.7741C232.794 75.3433 232.997 74.9832 233.28 74.6939C233.563 74.4015 233.909 74.183 234.319 74.0384C234.728 73.8906 235.18 73.8168 235.676 73.8168C236.017 73.8168 236.358 73.8568 236.696 73.9368C237.035 74.0168 237.344 74.1491 237.624 74.3338C237.904 74.5154 238.129 74.7631 238.298 75.0771C238.47 75.391 238.557 75.7834 238.557 76.2543V81H236.95V80.0259H236.895C236.793 80.2229 236.65 80.4076 236.465 80.5799C236.284 80.7492 236.054 80.8861 235.777 80.9908C235.503 81.0923 235.182 81.1431 234.813 81.1431ZM235.246 79.9151C235.582 79.9151 235.873 79.849 236.119 79.7166C236.365 79.5812 236.554 79.4027 236.687 79.1811C236.822 78.9595 236.89 78.7179 236.89 78.4563V77.6207C236.838 77.6638 236.748 77.7038 236.622 77.7408C236.499 77.7777 236.361 77.81 236.207 77.8377C236.053 77.8654 235.9 77.89 235.75 77.9116C235.599 77.9331 235.468 77.9516 235.357 77.967C235.108 78.0008 234.885 78.0562 234.688 78.1332C234.491 78.2101 234.336 78.3178 234.222 78.4563C234.108 78.5917 234.051 78.7672 234.051 78.9826C234.051 79.2904 234.163 79.5227 234.388 79.6797C234.612 79.8366 234.899 79.9151 235.246 79.9151ZM243.078 76.8452V81H241.407V73.9091H243.004V75.114H243.087C243.25 74.717 243.51 74.4015 243.867 74.1676C244.228 73.9337 244.672 73.8168 245.202 73.8168C245.691 73.8168 246.117 73.9214 246.48 74.1307C246.847 74.34 247.13 74.6431 247.33 75.0401C247.533 75.4371 247.633 75.9188 247.63 76.4851V81H245.959V76.7436C245.959 76.2696 245.836 75.8988 245.589 75.631C245.346 75.3633 245.009 75.2294 244.578 75.2294C244.286 75.2294 244.026 75.294 243.798 75.4233C243.574 75.5495 243.397 75.7326 243.267 75.9727C243.141 76.2127 243.078 76.5036 243.078 76.8452ZM251.284 83.6591C251.056 83.6591 250.845 83.6406 250.651 83.6037C250.46 83.5698 250.308 83.5298 250.194 83.4837L250.582 82.1818C250.825 82.2526 251.042 82.2865 251.233 82.2834C251.424 82.2803 251.591 82.2203 251.736 82.1033C251.884 81.9895 252.008 81.7987 252.11 81.5309L252.253 81.1477L249.682 73.9091H251.454L253.089 79.2642H253.162L254.801 73.9091H256.579L253.74 81.8587C253.607 82.2341 253.432 82.5558 253.213 82.8235C252.995 83.0943 252.727 83.3005 252.41 83.4421C252.096 83.5868 251.721 83.6591 251.284 83.6591Z" fill="white"/>
</g>
<defs>
<clipPath id="clip0_308_1809">
<rect width="282" height="84" fill="white"/>
</clipPath>
<clipPath id="clip1_308_1809">
<rect width="282" height="59.819" fill="white"/>
</clipPath>
</defs>
</svg>
